<svg width="190" height="88" viewBox="0 0 190 88" fill="none" xmlns="http://www.w3.org/2000/svg">
<g filter="url(#filter0_d_260_2459)">
<mask id="path-1-outside-1_260_2459" maskUnits="userSpaceOnUse" x="56.0056" y="60.0267" width="78.0329" height="21.1225" fill="black">
<rect fill="white" x="56.0056" y="60.0267" width="78.0329" height="21.1225"/>
<path d="M68.3938 65.9552C68.2929 65.0914 67.8792 64.4203 67.1526 63.9419C66.4261 63.4635 65.5345 63.2234 64.4776 63.2218C63.7049 63.2206 63.0286 63.3445 62.4486 63.5936C61.8744 63.8427 61.425 64.1857 61.1004 64.6227C60.7816 65.0597 60.6217 65.5566 60.6208 66.1135C60.6201 66.5794 60.7303 66.9801 60.9513 67.3157C61.1781 67.6456 61.4674 67.9216 61.8193 68.1438C62.1713 68.3602 62.5403 68.5398 62.9264 68.6824C63.3126 68.8194 63.6675 68.9307 63.9913 69.0165L65.7632 69.4965C66.2176 69.6166 66.723 69.7821 67.2795 69.9932C67.8417 70.2044 68.3782 70.4921 68.8889 70.8566C69.4054 71.2153 69.8308 71.6762 70.1652 72.2393C70.4995 72.8023 70.6661 73.4929 70.6648 74.3111C70.6633 75.2542 70.4148 76.1061 69.9193 76.8667C69.4294 77.6273 68.7126 78.2313 67.7687 78.6787C66.8305 79.1261 65.6909 79.3487 64.35 79.3466C63.1 79.3446 62.018 79.1412 61.1038 78.7364C60.1954 78.3316 59.4803 77.7679 58.9588 77.0455C58.4428 76.3231 58.1515 75.4846 58.0849 74.5299L60.2667 74.5334C60.3225 75.1925 60.5432 75.7383 60.9289 76.1708C61.3203 76.5975 61.8141 76.9165 62.4103 77.1276C63.0123 77.3331 63.6598 77.4364 64.353 77.4375C65.1598 77.4388 65.8845 77.3092 66.5269 77.0489C67.1694 76.7828 67.6785 76.4143 68.0542 75.9433C68.43 75.4666 68.6184 74.9101 68.6194 74.2738C68.6203 73.6942 68.4591 73.2224 68.1358 72.8582C67.8125 72.4941 67.3868 72.198 66.8588 71.9699C66.3307 71.7418 65.76 71.542 65.1467 71.3706L62.9999 70.7536C61.6369 70.3594 60.5582 69.798 59.7639 69.0695C58.9696 68.341 58.5734 67.3886 58.5752 66.2125C58.5767 65.2352 58.8423 64.3834 59.3718 63.6569C59.9071 62.9248 60.6239 62.3578 61.5222 61.9558C62.4263 61.5481 63.4351 61.3451 64.5488 61.3469C65.6738 61.3487 66.6734 61.5519 67.5478 61.9567C68.4222 62.3558 69.1145 62.9024 69.6248 63.5963C70.1407 64.2903 70.4122 65.0777 70.4393 65.9584L68.3938 65.9552ZM79.1775 79.3358C77.9502 79.3339 76.8938 79.0424 76.0084 78.4615C75.1229 77.8806 74.4424 77.0812 73.9667 76.0634C73.491 75.0456 73.2542 73.8833 73.2563 72.5765C73.2584 71.247 73.5045 70.074 73.9948 69.0578C74.4907 68.0358 75.1794 67.2386 76.061 66.6661C76.9483 66.088 77.9828 65.7998 79.1647 65.8017C80.0851 65.8031 80.9144 65.9749 81.6525 66.317C82.3906 66.659 82.9949 67.1372 83.4656 67.7516C83.9362 68.366 84.2277 69.0824 84.34 69.9007L82.3287 69.8976C82.1762 69.3007 81.8361 68.7718 81.3084 68.3107C80.7864 67.844 80.0823 67.6099 79.1959 67.6086C78.4118 67.6073 77.724 67.8108 77.1324 68.2189C76.5466 68.6214 76.0883 69.1917 75.7576 69.9299C75.4326 70.6623 75.2693 71.5228 75.2677 72.5115C75.2662 73.5228 75.4239 74.4038 75.7409 75.1543C76.0635 75.9048 76.5172 76.4879 77.1018 76.9036C77.692 77.3193 78.3849 77.5277 79.1803 77.529C79.703 77.5298 80.1776 77.4397 80.604 77.2585C81.0305 77.0774 81.3917 76.8166 81.6877 76.4761C81.9836 76.1357 82.1945 75.7269 82.3203 75.2498L84.3316 75.253C84.2168 76.0255 83.9344 76.7211 83.4846 77.3397C83.0405 77.9527 82.4516 78.4404 81.7181 78.8029C80.9903 79.1597 80.1434 79.3373 79.1775 79.3358ZM89.2897 71.204L89.2773 79.079L87.266 79.0758L87.2934 61.6213L89.3048 61.6244L89.2947 68.0335L89.4651 68.0338C89.773 67.3581 90.2341 66.8219 90.8483 66.4252C91.4683 66.0227 92.2925 65.8223 93.3209 65.8239C94.2129 65.8253 94.9939 66.0055 95.6638 66.3645C96.3337 66.7179 96.8527 67.2613 97.2209 67.9948C97.5947 68.7227 97.7808 69.6491 97.779 70.7741L97.766 79.0923L95.7546 79.0891L95.7674 70.9073C95.7691 69.8675 95.5005 69.0631 94.9616 68.4941C94.4284 67.9194 93.6874 67.6313 92.7385 67.6298C92.0794 67.6288 91.4883 67.7671 90.9651 68.0447C90.4476 68.3223 90.0379 68.7279 89.7359 69.2615C89.4396 69.7951 89.2909 70.4426 89.2897 71.204ZM106.763 79.3792C105.582 79.3773 104.545 79.0944 103.654 78.5305C102.768 77.9666 102.076 77.1786 101.578 76.1665C101.085 75.1543 100.84 73.9721 100.842 72.6198C100.844 71.2562 101.093 70.0663 101.589 69.05C102.091 68.0337 102.785 67.245 103.673 66.6839C104.565 66.1228 105.603 65.8432 106.785 65.8451C107.966 65.8469 109 66.1298 109.886 66.6937C110.777 67.2576 111.469 68.0485 111.961 69.0663C112.46 70.0841 112.708 71.2748 112.706 72.6385C112.704 73.9907 112.452 75.1722 111.95 76.1828C111.454 77.1933 110.76 77.9792 109.867 78.5403C108.98 79.1014 107.945 79.381 106.763 79.3792ZM106.766 77.5723C107.664 77.5737 108.403 77.3448 108.983 76.8855C109.563 76.4262 109.993 75.8217 110.273 75.0722C110.553 74.3226 110.693 73.5103 110.694 72.6353C110.696 71.7603 110.558 70.9448 110.281 70.1886C110.003 69.4325 109.575 68.8211 108.997 68.3542C108.418 67.8874 107.68 67.6533 106.782 67.6519C105.884 67.6505 105.145 67.8823 104.565 68.3473C103.985 68.8123 103.555 69.4224 103.275 70.1776C102.995 70.9329 102.855 71.748 102.854 72.623C102.852 73.498 102.99 74.3107 103.267 75.0612C103.545 75.8116 103.973 76.4174 104.551 76.8785C105.13 77.3397 105.868 77.5709 106.766 77.5723ZM121.084 79.4016C119.902 79.3998 118.865 79.1169 117.974 78.553C117.089 77.9891 116.397 77.2011 115.898 76.189C115.406 75.1768 115.16 73.9946 115.162 72.6423C115.165 71.2787 115.414 70.0888 115.91 69.0725C116.411 68.0562 117.106 67.2675 117.993 66.7064C118.886 66.1453 119.923 65.8657 121.105 65.8676C122.287 65.8694 123.32 66.1523 124.206 66.7162C125.097 67.2801 125.789 68.071 126.282 69.0888C126.78 70.1066 127.028 71.2973 127.026 72.661C127.024 74.0132 126.772 75.1947 126.271 76.2052C125.775 77.2158 125.08 78.0017 124.187 78.5628C123.3 79.1239 122.265 79.4035 121.084 79.4016ZM121.087 77.5948C121.984 77.5962 122.723 77.3673 123.304 76.908C123.884 76.4487 124.314 75.8442 124.593 75.0947C124.873 74.3451 125.013 73.5328 125.015 72.6578C125.016 71.7828 124.878 70.9673 124.601 70.2111C124.324 69.455 123.896 68.8436 123.317 68.3767C122.738 67.9099 122 67.6758 121.102 67.6744C120.204 67.673 119.465 67.9048 118.885 68.3698C118.305 68.8348 117.875 69.4449 117.595 70.2001C117.316 70.9554 117.175 71.7705 117.174 72.6455C117.172 73.5205 117.31 74.3332 117.588 75.0837C117.865 75.8341 118.293 76.4399 118.872 76.901C119.451 77.3621 120.189 77.5934 121.087 77.5948ZM132.125 61.6917L132.098 79.1462L130.086 79.1431L130.114 61.6885L132.125 61.6917Z"/>
</mask>
<path d="M68.3938 65.9552C68.2929 65.0914 67.8792 64.4203 67.1526 63.9419C66.4261 63.4635 65.5345 63.2234 64.4776 63.2218C63.7049 63.2206 63.0286 63.3445 62.4486 63.5936C61.8744 63.8427 61.425 64.1857 61.1004 64.6227C60.7816 65.0597 60.6217 65.5566 60.6208 66.1135C60.6201 66.5794 60.7303 66.9801 60.9513 67.3157C61.1781 67.6456 61.4674 67.9216 61.8193 68.1438C62.1713 68.3602 62.5403 68.5398 62.9264 68.6824C63.3126 68.8194 63.6675 68.9307 63.9913 69.0165L65.7632 69.4965C66.2176 69.6166 66.723 69.7821 67.2795 69.9932C67.8417 70.2044 68.3782 70.4921 68.8889 70.8566C69.4054 71.2153 69.8308 71.6762 70.1652 72.2393C70.4995 72.8023 70.6661 73.4929 70.6648 74.3111C70.6633 75.2542 70.4148 76.1061 69.9193 76.8667C69.4294 77.6273 68.7126 78.2313 67.7687 78.6787C66.8305 79.1261 65.6909 79.3487 64.35 79.3466C63.1 79.3446 62.018 79.1412 61.1038 78.7364C60.1954 78.3316 59.4803 77.7679 58.9588 77.0455C58.4428 76.3231 58.1515 75.4846 58.0849 74.5299L60.2667 74.5334C60.3225 75.1925 60.5432 75.7383 60.9289 76.1708C61.3203 76.5975 61.8141 76.9165 62.4103 77.1276C63.0123 77.3331 63.6598 77.4364 64.353 77.4375C65.1598 77.4388 65.8845 77.3092 66.5269 77.0489C67.1694 76.7828 67.6785 76.4143 68.0542 75.9433C68.43 75.4666 68.6184 74.9101 68.6194 74.2738C68.6203 73.6942 68.4591 73.2224 68.1358 72.8582C67.8125 72.4941 67.3868 72.198 66.8588 71.9699C66.3307 71.7418 65.76 71.542 65.1467 71.3706L62.9999 70.7536C61.6369 70.3594 60.5582 69.798 59.7639 69.0695C58.9696 68.341 58.5734 67.3886 58.5752 66.2125C58.5767 65.2352 58.8423 64.3834 59.3718 63.6569C59.9071 62.9248 60.6239 62.3578 61.5222 61.9558C62.4263 61.5481 63.4351 61.3451 64.5488 61.3469C65.6738 61.3487 66.6734 61.5519 67.5478 61.9567C68.4222 62.3558 69.1145 62.9024 69.6248 63.5963C70.1407 64.2903 70.4122 65.0777 70.4393 65.9584L68.3938 65.9552ZM79.1775 79.3358C77.9502 79.3339 76.8938 79.0424 76.0084 78.4615C75.1229 77.8806 74.4424 77.0812 73.9667 76.0634C73.491 75.0456 73.2542 73.8833 73.2563 72.5765C73.2584 71.247 73.5045 70.074 73.9948 69.0578C74.4907 68.0358 75.1794 67.2386 76.061 66.6661C76.9483 66.088 77.9828 65.7998 79.1647 65.8017C80.0851 65.8031 80.9144 65.9749 81.6525 66.317C82.3906 66.659 82.9949 67.1372 83.4656 67.7516C83.9362 68.366 84.2277 69.0824 84.34 69.9007L82.3287 69.8976C82.1762 69.3007 81.8361 68.7718 81.3084 68.3107C80.7864 67.844 80.0823 67.6099 79.1959 67.6086C78.4118 67.6073 77.724 67.8108 77.1324 68.2189C76.5466 68.6214 76.0883 69.1917 75.7576 69.9299C75.4326 70.6623 75.2693 71.5228 75.2677 72.5115C75.2662 73.5228 75.4239 74.4038 75.7409 75.1543C76.0635 75.9048 76.5172 76.4879 77.1018 76.9036C77.692 77.3193 78.3849 77.5277 79.1803 77.529C79.703 77.5298 80.1776 77.4397 80.604 77.2585C81.0305 77.0774 81.3917 76.8166 81.6877 76.4761C81.9836 76.1357 82.1945 75.7269 82.3203 75.2498L84.3316 75.253C84.2168 76.0255 83.9344 76.7211 83.4846 77.3397C83.0405 77.9527 82.4516 78.4404 81.7181 78.8029C80.9903 79.1597 80.1434 79.3373 79.1775 79.3358ZM89.2897 71.204L89.2773 79.079L87.266 79.0758L87.2934 61.6213L89.3048 61.6244L89.2947 68.0335L89.4651 68.0338C89.773 67.3581 90.2341 66.8219 90.8483 66.4252C91.4683 66.0227 92.2925 65.8223 93.3209 65.8239C94.2129 65.8253 94.9939 66.0055 95.6638 66.3645C96.3337 66.7179 96.8527 67.2613 97.2209 67.9948C97.5947 68.7227 97.7808 69.6491 97.779 70.7741L97.766 79.0923L95.7546 79.0891L95.7674 70.9073C95.7691 69.8675 95.5005 69.0631 94.9616 68.4941C94.4284 67.9194 93.6874 67.6313 92.7385 67.6298C92.0794 67.6288 91.4883 67.7671 90.9651 68.0447C90.4476 68.3223 90.0379 68.7279 89.7359 69.2615C89.4396 69.7951 89.2909 70.4426 89.2897 71.204ZM106.763 79.3792C105.582 79.3773 104.545 79.0944 103.654 78.5305C102.768 77.9666 102.076 77.1786 101.578 76.1665C101.085 75.1543 100.84 73.9721 100.842 72.6198C100.844 71.2562 101.093 70.0663 101.589 69.05C102.091 68.0337 102.785 67.245 103.673 66.6839C104.565 66.1228 105.603 65.8432 106.785 65.8451C107.966 65.8469 109 66.1298 109.886 66.6937C110.777 67.2576 111.469 68.0485 111.961 69.0663C112.46 70.0841 112.708 71.2748 112.706 72.6385C112.704 73.9907 112.452 75.1722 111.95 76.1828C111.454 77.1933 110.76 77.9792 109.867 78.5403C108.98 79.1014 107.945 79.381 106.763 79.3792ZM106.766 77.5723C107.664 77.5737 108.403 77.3448 108.983 76.8855C109.563 76.4262 109.993 75.8217 110.273 75.0722C110.553 74.3226 110.693 73.5103 110.694 72.6353C110.696 71.7603 110.558 70.9448 110.281 70.1886C110.003 69.4325 109.575 68.8211 108.997 68.3542C108.418 67.8874 107.68 67.6533 106.782 67.6519C105.884 67.6505 105.145 67.8823 104.565 68.3473C103.985 68.8123 103.555 69.4224 103.275 70.1776C102.995 70.9329 102.855 71.748 102.854 72.623C102.852 73.498 102.99 74.3107 103.267 75.0612C103.545 75.8116 103.973 76.4174 104.551 76.8785C105.13 77.3397 105.868 77.5709 106.766 77.5723ZM121.084 79.4016C119.902 79.3998 118.865 79.1169 117.974 78.553C117.089 77.9891 116.397 77.2011 115.898 76.189C115.406 75.1768 115.16 73.9946 115.162 72.6423C115.165 71.2787 115.414 70.0888 115.91 69.0725C116.411 68.0562 117.106 67.2675 117.993 66.7064C118.886 66.1453 119.923 65.8657 121.105 65.8676C122.287 65.8694 123.32 66.1523 124.206 66.7162C125.097 67.2801 125.789 68.071 126.282 69.0888C126.78 70.1066 127.028 71.2973 127.026 72.661C127.024 74.0132 126.772 75.1947 126.271 76.2052C125.775 77.2158 125.08 78.0017 124.187 78.5628C123.3 79.1239 122.265 79.4035 121.084 79.4016ZM121.087 77.5948C121.984 77.5962 122.723 77.3673 123.304 76.908C123.884 76.4487 124.314 75.8442 124.593 75.0947C124.873 74.3451 125.013 73.5328 125.015 72.6578C125.016 71.7828 124.878 70.9673 124.601 70.2111C124.324 69.455 123.896 68.8436 123.317 68.3767C122.738 67.9099 122 67.6758 121.102 67.6744C120.204 67.673 119.465 67.9048 118.885 68.3698C118.305 68.8348 117.875 69.4449 117.595 70.2001C117.316 70.9554 117.175 71.7705 117.174 72.6455C117.172 73.5205 117.31 74.3332 117.588 75.0837C117.865 75.8341 118.293 76.4399 118.872 76.901C119.451 77.3621 120.189 77.5934 121.087 77.5948ZM132.125 61.6917L132.098 79.1462L130.086 79.1431L130.114 61.6885L132.125 61.6917Z" fill="black"/>
<path d="M68.3938 65.9552L67.4006 66.0713L67.5037 66.9538L68.3922 66.9552L68.3938 65.9552ZM67.1526 63.9419L66.6027 64.7771L67.1526 63.9419ZM62.4486 63.5936L62.054 62.6748L62.0507 62.6762L62.4486 63.5936ZM61.1004 64.6227L60.2976 64.0265L60.2926 64.0333L61.1004 64.6227ZM60.9513 67.3157L60.1162 67.8658L60.1216 67.874L60.1272 67.8821L60.9513 67.3157ZM61.8193 68.1438L61.2855 68.9894L61.2954 68.9955L61.8193 68.1438ZM62.9264 68.6824L62.5799 69.6205L62.5921 69.6249L62.9264 68.6824ZM63.9913 69.0165L64.2528 68.0513L64.2473 68.0498L63.9913 69.0165ZM65.7632 69.4965L65.5017 70.4618L65.5078 70.4634L65.7632 69.4965ZM67.2795 69.9932L66.9248 70.9282L66.9279 70.9294L67.2795 69.9932ZM68.8889 70.8566L68.3081 71.6707L68.3184 71.6779L68.8889 70.8566ZM70.1652 72.2393L71.025 71.7287L71.025 71.7287L70.1652 72.2393ZM69.9193 76.8667L69.0814 76.3208L69.0785 76.3253L69.9193 76.8667ZM67.7687 78.6787L67.3404 77.775L67.3383 77.7761L67.7687 78.6787ZM61.1038 78.7364L60.6968 79.6498L60.6989 79.6507L61.1038 78.7364ZM58.9588 77.0455L58.145 77.6267L58.148 77.6309L58.9588 77.0455ZM58.0849 74.5299L58.0864 73.5299L57.0125 73.5283L57.0873 74.5996L58.0849 74.5299ZM60.2667 74.5334L61.2631 74.449L61.1858 73.5348L60.2682 73.5334L60.2667 74.5334ZM60.9289 76.1708L60.1825 76.8365L60.1919 76.8467L60.9289 76.1708ZM62.4103 77.1276L62.0765 78.0703L62.0873 78.074L62.4103 77.1276ZM66.5269 77.0489L66.9025 77.9757L66.9095 77.9728L66.5269 77.0489ZM68.0542 75.9433L68.836 76.567L68.8396 76.5624L68.0542 75.9433ZM68.1358 72.8582L68.8836 72.1943L68.1358 72.8582ZM66.8588 71.9699L66.4622 72.8879L66.4622 72.8879L66.8588 71.9699ZM65.1467 71.3706L64.8704 72.3317L64.8775 72.3337L65.1467 71.3706ZM62.9999 70.7536L62.7221 71.7142L62.7237 71.7147L62.9999 70.7536ZM59.7639 69.0695L59.088 69.8065L59.7639 69.0695ZM59.3718 63.6569L58.5646 63.0668L58.5638 63.0679L59.3718 63.6569ZM61.5222 61.9558L61.9307 62.8686L61.9333 62.8674L61.5222 61.9558ZM67.5478 61.9567L67.1277 62.8642L67.1326 62.8664L67.5478 61.9567ZM69.6248 63.5963L68.8191 64.1887L68.8223 64.193L69.6248 63.5963ZM70.4393 65.9584L70.4377 66.9584L71.4705 66.96L71.4388 65.9278L70.4393 65.9584ZM69.387 65.8392C69.2518 64.6819 68.6758 63.7476 67.7026 63.1067L66.6027 64.7771C67.0825 65.0931 67.3339 65.501 67.4006 66.0713L69.387 65.8392ZM67.7026 63.1067C66.7812 62.5 65.6887 62.2237 64.4792 62.2218L64.4761 64.2218C65.3802 64.2232 66.071 64.427 66.6027 64.7771L67.7026 63.1067ZM64.4792 62.2218C63.6 62.2204 62.7838 62.3613 62.054 62.6748L62.8433 64.5124C63.2733 64.3277 63.8098 64.2207 64.4761 64.2218L64.4792 62.2218ZM62.0507 62.6762C61.3401 62.9844 60.7415 63.4289 60.2976 64.0265L61.9032 65.219C62.1085 64.9426 62.4087 64.701 62.8466 64.511L62.0507 62.6762ZM60.2926 64.0333C59.8453 64.6463 59.622 65.3504 59.6208 66.1119L61.6208 66.115C61.6214 65.7629 61.7178 65.4732 61.9082 65.2122L60.2926 64.0333ZM59.6208 66.1119C59.6198 66.7418 59.7709 67.3416 60.1162 67.8658L61.7864 66.7656C61.6896 66.6186 61.6203 66.4169 61.6208 66.115L59.6208 66.1119ZM60.1272 67.8821C60.4339 68.3282 60.8236 68.6978 61.2856 68.9894L62.3531 67.2981C62.1113 67.1455 61.9223 66.9629 61.7754 66.7492L60.1272 67.8821ZM61.2954 68.9955C61.7033 69.2464 62.1317 69.4549 62.5799 69.6205L63.273 67.7444C62.9489 67.6247 62.6392 67.474 62.3432 67.292L61.2954 68.9955ZM62.5921 69.6249C62.9986 69.7691 63.3801 69.8891 63.7352 69.9832L64.2473 68.0498C63.955 67.9724 63.6266 67.8697 63.2607 67.74L62.5921 69.6249ZM63.7298 69.9817L65.5017 70.4617L66.0247 68.5313L64.2528 68.0513L63.7298 69.9817ZM65.5078 70.4634C65.9211 70.5726 66.3927 70.7264 66.9248 70.9282L67.6342 69.0583C67.0533 68.8379 66.5141 68.6606 66.0187 68.5297L65.5078 70.4634ZM66.9279 70.9294C67.4051 71.1086 67.8649 71.3544 68.3081 71.6706L69.4697 70.0425C68.8914 69.6299 68.2782 69.3001 67.6311 69.0571L66.9279 70.9294ZM68.3184 71.6779C68.7125 71.9516 69.041 72.3047 69.3054 72.7498L71.025 71.7287C70.6207 71.0478 70.0984 70.4791 69.4594 70.0353L68.3184 71.6779ZM69.3054 72.7498C69.5273 73.1236 69.6658 73.627 69.6648 74.3095L71.6648 74.3126C71.6663 73.3588 71.4717 72.4809 71.025 71.7287L69.3054 72.7498ZM69.6648 74.3095C69.6636 75.0673 69.4671 75.7288 69.0814 76.3209L70.7571 77.4126C71.3624 76.4835 71.663 75.4411 71.6648 74.3126L69.6648 74.3095ZM69.0785 76.3253C68.7045 76.906 68.1423 77.395 67.3404 77.775L68.197 79.5823C69.2829 79.0676 70.1544 78.3486 70.76 77.4082L69.0785 76.3253ZM67.3383 77.7761C66.5682 78.1433 65.5848 78.3485 64.3516 78.3466L64.3485 80.3466C65.797 80.3489 67.0928 80.1089 68.1991 79.5813L67.3383 77.7761ZM64.3516 78.3466C63.2068 78.3448 62.2683 78.1584 61.5088 77.822L60.6989 79.6507C61.7676 80.1241 62.9932 80.3445 64.3485 80.3466L64.3516 78.3466ZM61.5109 77.823C60.7444 77.4814 60.1762 77.0234 59.7695 76.4601L58.148 77.6309C58.7845 78.5125 59.6463 79.1817 60.6968 79.6498L61.5109 77.823ZM59.7725 76.4643C59.3723 75.9039 59.1373 75.2456 59.0824 74.4603L57.0873 74.5996C57.1658 75.7235 57.5134 76.7423 58.145 77.6267L59.7725 76.4643ZM58.0833 75.5299L60.2651 75.5334L60.2682 73.5334L58.0864 73.5299L58.0833 75.5299ZM59.2702 74.6177C59.3416 75.4607 59.6328 76.22 60.1826 76.8364L61.6752 75.5051C61.4536 75.2567 61.3033 74.9244 61.2631 74.449L59.2702 74.6177ZM60.1919 76.8467C60.7038 77.4049 61.3406 77.8097 62.0765 78.0703L62.7442 76.185C62.2875 76.0233 61.9367 75.7902 61.6659 75.4949L60.1919 76.8467ZM62.0873 78.074C62.8016 78.3179 63.5587 78.4363 64.3515 78.4375L64.3546 76.4375C63.761 76.4366 63.223 76.3484 62.7334 76.1813L62.0873 78.074ZM64.3515 78.4375C65.2666 78.439 66.1223 78.2919 66.9025 77.9757L66.1514 76.1221C65.6467 76.3266 65.0531 76.4386 64.3546 76.4375L64.3515 78.4375ZM66.9095 77.9728C67.684 77.6521 68.3395 77.1894 68.836 76.5669L67.2725 75.3197C67.0176 75.6393 66.6548 75.9136 66.1444 76.125L66.9095 77.9728ZM68.8396 76.5624C69.3611 75.9008 69.618 75.1241 69.6194 74.2753L67.6194 74.2722C67.6187 74.6962 67.4989 75.0325 67.2689 75.3243L68.8396 76.5624ZM69.6194 74.2753C69.6206 73.4997 69.3997 72.7756 68.8836 72.1943L67.388 73.5221C67.5185 73.6692 67.62 73.8887 67.6194 74.2722L69.6194 74.2753ZM68.8836 72.1943C68.4472 71.7027 67.8936 71.3275 67.2553 71.0518L66.4622 72.8879C66.8801 73.0684 67.1778 73.2854 67.388 73.5221L68.8836 72.1943ZM67.2553 71.0518C66.6818 70.8041 66.0681 70.5898 65.4158 70.4075L64.8775 72.3337C65.452 72.4942 65.9797 72.6794 66.4622 72.8879L67.2553 71.0518ZM65.4229 70.4095L63.2761 69.7925L62.7237 71.7147L64.8704 72.3317L65.4229 70.4095ZM63.2777 69.7929C62.0179 69.4286 61.0904 68.9292 60.4398 68.3325L59.088 69.8065C60.0261 70.6669 61.2559 71.2902 62.7221 71.7142L63.2777 69.7929ZM60.4398 68.3325C59.8726 67.8123 59.5738 67.1381 59.5752 66.2141L57.5752 66.2109C57.573 67.6392 58.0666 68.8697 59.088 69.8065L60.4398 68.3325ZM59.5752 66.2141C59.5764 65.4286 59.7857 64.7868 60.1799 64.246L58.5638 63.0679C57.8988 63.98 57.577 65.0419 57.5752 66.2109L59.5752 66.2141ZM60.1791 64.2471C60.6031 63.6672 61.1771 63.2058 61.9307 62.8686L61.1138 61.043C60.0706 61.5098 59.2111 62.1824 58.5646 63.0668L60.1791 64.2471ZM61.9333 62.8674C62.6926 62.525 63.5583 62.3453 64.5472 62.3469L64.5503 60.3469C63.312 60.3449 62.16 60.5712 61.1112 61.0442L61.9333 62.8674ZM64.5472 62.3469C65.5517 62.3485 66.4047 62.5295 67.1277 62.8642L67.9679 61.0492C66.9422 60.5744 65.7958 60.3489 64.5503 60.3469L64.5472 62.3469ZM67.1326 62.8664C67.8702 63.2031 68.4211 63.6474 68.8191 64.1887L70.4304 63.004C69.8079 62.1573 68.9742 61.5085 67.963 61.047L67.1326 62.8664ZM68.8223 64.193C69.2138 64.7196 69.4188 65.3086 69.4397 65.9891L71.4388 65.9278C71.4056 64.8468 71.0677 63.8611 70.4273 62.9997L68.8223 64.193ZM70.4408 64.9584L68.3954 64.9552L68.3922 66.9552L70.4377 66.9584L70.4408 64.9584ZM76.0084 78.4615L75.4598 79.2976L76.0084 78.4615ZM73.9948 69.0578L73.0951 68.6212L73.0941 68.6233L73.9948 69.0578ZM76.061 66.6661L76.6056 67.5048L76.607 67.504L76.061 66.6661ZM83.4656 67.7516L84.2594 67.1435L84.2594 67.1435L83.4656 67.7516ZM84.34 69.9007L84.3385 70.9007L85.487 70.9025L85.3307 69.7647L84.34 69.9007ZM82.3287 69.8976L81.3598 70.1451L81.5517 70.8963L82.3271 70.8976L82.3287 69.8976ZM81.3084 68.3107L80.6419 69.0563L80.6505 69.0638L81.3084 68.3107ZM77.1324 68.2189L77.6987 69.0432L77.7004 69.042L77.1324 68.2189ZM75.7576 69.9299L74.845 69.521L74.8435 69.5243L75.7576 69.9299ZM75.7409 75.1543L74.8196 75.5434L74.8222 75.5493L75.7409 75.1543ZM77.1018 76.9036L76.5222 77.7185L76.526 77.7212L77.1018 76.9036ZM80.604 77.2585L80.213 76.3381L80.604 77.2585ZM81.6877 76.4761L82.4423 77.1322L81.6877 76.4761ZM82.3203 75.2498L82.3218 74.2498L81.55 74.2486L81.3533 74.995L82.3203 75.2498ZM84.3316 75.253L85.3208 75.4L85.491 74.2548L84.3332 74.253L84.3316 75.253ZM83.4846 77.3397L82.6758 76.7516L82.6748 76.753L83.4846 77.3397ZM81.7181 78.8029L82.1583 79.7008L82.1611 79.6994L81.7181 78.8029ZM79.1791 78.3358C78.1145 78.3341 77.2553 78.0836 76.557 77.6254L75.4598 79.2976C76.5324 80.0013 77.7859 80.3336 79.1759 80.3358L79.1791 78.3358ZM76.557 77.6254C75.8362 77.1525 75.2748 76.5004 74.8726 75.64L73.0608 76.4868C73.61 77.662 74.4097 78.6086 75.4598 79.2976L76.557 77.6254ZM74.8726 75.64C74.4685 74.7753 74.2544 73.7619 74.2563 72.5781L72.2563 72.5749C72.254 74.0047 72.5136 75.316 73.0608 76.4868L74.8726 75.64ZM74.2563 72.5781C74.2582 71.3719 74.481 70.3515 74.8954 69.4922L73.0941 68.6233C72.5281 69.7966 72.2586 71.122 72.2563 72.5749L74.2563 72.5781ZM74.8944 69.4944C75.3175 68.6226 75.8891 67.9701 76.6056 67.5048L75.5164 65.8274C74.4698 66.5071 73.6639 67.4491 73.0951 68.6212L74.8944 69.4944ZM76.607 67.504C77.3129 67.044 78.1523 66.8001 79.1631 66.8017L79.1662 64.8017C77.8134 64.7996 76.5837 65.132 75.5151 65.8283L76.607 67.504ZM79.1631 66.8017C79.9579 66.8029 80.6414 66.9506 81.232 67.2243L82.073 65.4097C81.1873 64.9992 80.2123 64.8033 79.1662 64.8017L79.1631 66.8017ZM81.232 67.2243C81.831 67.5019 82.3046 67.8804 82.6717 68.3597L84.2594 67.1435C83.6853 66.394 82.9501 65.8162 82.073 65.4097L81.232 67.2243ZM82.6717 68.3597C83.0298 68.8272 83.2589 69.3782 83.3493 70.0367L85.3307 69.7647C85.1965 68.7866 84.8426 67.9048 84.2594 67.1435L82.6717 68.3597ZM84.3416 68.9007L82.3302 68.8976L82.3271 70.8976L84.3385 70.9007L84.3416 68.9007ZM83.2976 69.65C83.0883 68.831 82.6248 68.133 81.9664 67.5577L80.6505 69.0638C81.0475 69.4106 81.2641 69.7705 81.3598 70.1451L83.2976 69.65ZM81.975 67.5653C81.2254 66.895 80.2618 66.6102 79.1975 66.6086L79.1943 68.6085C79.9028 68.6097 80.3475 68.793 80.6419 69.0562L81.975 67.5653ZM79.1975 66.6086C78.2294 66.607 77.3388 66.8616 76.5645 67.3959L77.7004 69.042C78.1092 68.7599 78.5942 68.6076 79.1943 68.6085L79.1975 66.6086ZM76.5662 67.3947C75.8089 67.915 75.2402 68.6389 74.845 69.521L76.6702 70.3387C76.9364 69.7446 77.2842 69.3279 77.6987 69.0432L76.5662 67.3947ZM74.8435 69.5243C74.4505 70.41 74.2695 71.4137 74.2677 72.5099L76.2677 72.513C76.2691 71.6319 76.4147 70.9146 76.6716 70.3355L74.8435 69.5243ZM74.2677 72.5099C74.266 73.6241 74.4395 74.6433 74.8197 75.5434L76.6621 74.7652C76.4082 74.1643 76.2663 73.4216 76.2677 72.513L74.2677 72.5099ZM74.8222 75.5493C75.207 76.4443 75.7684 77.1825 76.5222 77.7185L77.6813 76.0886C77.266 75.7933 76.9201 75.3653 76.6595 74.7593L74.8222 75.5493ZM76.526 77.7212C77.3014 78.2673 78.1996 78.5275 79.1787 78.529L79.1819 76.529C78.5701 76.528 78.0826 76.3713 77.6776 76.086L76.526 77.7212ZM79.1787 78.529C79.8191 78.53 80.4295 78.4191 80.995 78.1789L80.213 76.3381C79.9257 76.4602 79.587 76.5296 79.1819 76.529L79.1787 78.529ZM80.995 78.1789C81.5573 77.9401 82.044 77.5904 82.4423 77.1322L80.933 75.82C80.7393 76.0427 80.5037 76.2147 80.213 76.3381L80.995 78.1789ZM82.4423 77.1322C82.8481 76.6656 83.1261 76.1159 83.2872 75.5047L81.3533 74.995C81.2629 75.3379 81.1192 75.6058 80.933 75.82L82.4423 77.1322ZM82.3187 76.2498L84.3301 76.253L84.3332 74.253L82.3218 74.2498L82.3187 76.2498ZM83.3425 75.1059C83.2508 75.7226 83.0288 76.2662 82.6758 76.7516L84.2934 77.9278C84.84 77.1761 85.1827 76.3285 85.3208 75.4L83.3425 75.1059ZM82.6748 76.753C82.3336 77.2239 81.8751 77.6099 81.2751 77.9064L82.1611 79.6994C83.0282 79.2709 83.7473 78.6814 84.2944 77.9265L82.6748 76.753ZM81.2779 77.905C80.7115 78.1826 80.0209 78.3371 79.1791 78.3358L79.1759 80.3358C80.2659 80.3375 81.269 80.1367 82.1583 79.7008L81.2779 77.905ZM89.2773 79.079L89.2758 80.0789L90.2758 80.0805L90.2773 79.0805L89.2773 79.079ZM87.266 79.0758L86.266 79.0742L86.2644 80.0742L87.2644 80.0758L87.266 79.0758ZM87.2934 61.6213L87.295 60.6213L86.295 60.6197L86.2934 61.6197L87.2934 61.6213ZM89.3048 61.6244L90.3047 61.626L90.3063 60.626L89.3063 60.6244L89.3048 61.6244ZM89.2947 68.0335L88.2947 68.0319L88.2931 69.0319L89.2931 69.0335L89.2947 68.0335ZM89.4651 68.0338L89.4636 69.0338L90.1079 69.0348L90.3751 68.4484L89.4651 68.0338ZM90.8483 66.4252L91.3909 67.2652L91.3928 67.2639L90.8483 66.4252ZM95.6638 66.3645L95.1914 67.246L95.1973 67.249L95.6638 66.3645ZM97.2209 67.9948L96.3271 68.4434L96.3314 68.4517L97.2209 67.9948ZM97.766 79.0923L97.7644 80.0923L98.7644 80.0939L98.766 79.0939L97.766 79.0923ZM95.7546 79.0891L94.7546 79.0876L94.753 80.0876L95.753 80.0891L95.7546 79.0891ZM94.9616 68.4941L94.2285 69.1743L94.2355 69.1817L94.9616 68.4941ZM90.9651 68.0447L90.4964 67.1613L90.4924 67.1634L90.9651 68.0447ZM89.7359 69.2615L88.8656 68.769L88.8617 68.776L89.7359 69.2615ZM88.2897 71.2024L88.2773 79.0774L90.2773 79.0805L90.2897 71.2055L88.2897 71.2024ZM89.2789 78.079L87.2675 78.0758L87.2644 80.0758L89.2758 80.0789L89.2789 78.079ZM88.266 79.0774L88.2934 61.6228L86.2934 61.6197L86.266 79.0742L88.266 79.0774ZM87.2918 62.6213L89.3032 62.6244L89.3063 60.6244L87.295 60.6213L87.2918 62.6213ZM88.3048 61.6229L88.2947 68.0319L90.2947 68.0351L90.3047 61.626L88.3048 61.6229ZM89.2931 69.0335L89.4636 69.0338L89.4667 67.0338L89.2963 67.0335L89.2931 69.0335ZM90.3751 68.4484C90.605 67.9439 90.9399 67.5565 91.3909 67.2652L90.3058 65.5851C89.5283 66.0873 88.941 66.7723 88.5552 67.6191L90.3751 68.4484ZM91.3928 67.2639C91.7982 67.0008 92.4117 66.8225 93.3193 66.8239L93.3225 64.8239C92.1733 64.8221 91.1384 65.0447 90.3039 65.5864L91.3928 67.2639ZM93.3193 66.8239C94.0756 66.8251 94.6896 66.977 95.1914 67.2459L96.1361 65.4831C95.2982 65.0341 94.3502 64.8255 93.3225 64.8239L93.3193 66.8239ZM95.1973 67.249C95.6672 67.4969 96.0442 67.8797 96.3271 68.4434L98.1146 67.5462C97.6612 66.6429 97.0002 65.9388 96.1303 65.48L95.1973 67.249ZM96.3314 68.4517C96.6103 68.9947 96.7806 69.7503 96.779 70.7725L98.779 70.7757C98.7809 69.5479 98.5792 68.4506 98.1104 67.5379L96.3314 68.4517ZM96.779 70.7725L96.766 79.0907L98.766 79.0939L98.779 70.7757L96.779 70.7725ZM97.7675 78.0923L95.7562 78.0891L95.753 80.0891L97.7644 80.0923L97.7675 78.0923ZM96.7546 79.0907L96.7674 70.9089L94.7675 70.9057L94.7546 79.0876L96.7546 79.0907ZM96.7674 70.9089C96.7693 69.6988 96.4542 68.6159 95.6877 67.8065L94.2355 69.1817C94.5467 69.5104 94.7688 70.0363 94.7675 70.9057L96.7674 70.9089ZM95.6947 67.814C94.9336 66.9937 93.9035 66.6317 92.7401 66.6298L92.7369 68.6298C93.4712 68.631 93.9232 68.8451 94.2285 69.1743L95.6947 67.814ZM92.7401 66.6298C91.9359 66.6286 91.1802 66.7985 90.4964 67.1613L91.4338 68.928C91.7964 68.7356 92.223 68.629 92.7369 68.6298L92.7401 66.6298ZM90.4924 67.1634C89.8008 67.5345 89.2564 68.0784 88.8656 68.769L90.6062 69.754C90.8194 69.3773 91.0945 69.11 91.4378 68.9259L90.4924 67.1634ZM88.8617 68.776C88.4652 69.49 88.2911 70.313 88.2897 71.2024L90.2897 71.2055C90.2907 70.5722 90.4141 70.1002 90.6102 69.7469L88.8617 68.776ZM103.654 78.5305L103.117 79.374L103.119 79.3755L103.654 78.5305ZM101.578 76.1665L100.679 76.6042L100.681 76.6082L101.578 76.1665ZM101.589 69.05L100.693 68.6074L100.691 68.6114L101.589 69.05ZM103.673 66.6839L103.14 65.8372L103.138 65.8388L103.673 66.6839ZM109.886 66.6937L109.348 67.5372L109.351 67.5387L109.886 66.6937ZM111.961 69.0663L111.061 69.502L111.063 69.5061L111.961 69.0663ZM111.95 76.1828L111.054 75.7382L111.052 75.7422L111.95 76.1828ZM109.867 78.5403L109.335 77.6936L109.332 77.6951L109.867 78.5403ZM108.983 76.8855L108.363 76.1014L108.983 76.8855ZM110.273 75.0722L111.21 75.4216L110.273 75.0722ZM110.281 70.1886L111.22 69.8444L111.22 69.8444L110.281 70.1886ZM108.997 68.3542L109.624 67.5758L108.997 68.3542ZM104.565 68.3473L103.939 67.5669L104.565 68.3473ZM103.275 70.1776L102.337 69.8305L102.337 69.8305L103.275 70.1776ZM103.267 75.0612L102.329 75.4077L103.267 75.0612ZM104.551 76.8785L105.175 76.0964L104.551 76.8785ZM106.765 78.3792C105.748 78.3776 104.902 78.1366 104.189 77.6855L103.119 79.3755C104.189 80.0522 105.415 80.377 106.762 80.3792L106.765 78.3792ZM104.191 77.687C103.472 77.2289 102.899 76.5852 102.475 75.7247L100.681 76.6082C101.254 77.772 102.065 78.7043 103.117 79.374L104.191 77.687ZM102.477 75.7287C102.063 74.8783 101.84 73.8517 101.842 72.6214L99.8422 72.6183C99.8399 74.0925 100.108 75.4304 100.679 76.6042L102.477 75.7287ZM101.842 72.6214C101.844 71.3785 102.071 70.3435 102.488 69.4885L100.691 68.6114C100.116 69.789 99.8445 71.1339 99.8422 72.6183L101.842 72.6214ZM102.486 69.4926C102.913 68.6277 103.488 67.9841 104.207 67.5291L103.138 65.8388C102.083 66.506 101.269 67.4398 100.693 68.6074L102.486 69.4926ZM104.205 67.5306C104.919 67.0818 105.767 66.8435 106.783 66.8451L106.786 64.8451C105.439 64.843 104.212 65.1639 103.14 65.8372L104.205 67.5306ZM106.783 66.8451C107.8 66.8467 108.643 67.0877 109.348 67.5372L110.423 65.8502C109.358 65.172 108.133 64.8472 106.786 64.8451L106.783 66.8451ZM109.351 67.5387C110.073 67.9957 110.644 68.6394 111.061 69.502L112.861 68.6306C112.294 67.4575 111.48 66.5195 110.42 65.8487L109.351 67.5387ZM111.063 69.5061C111.482 70.3614 111.708 71.3955 111.706 72.6369L113.706 72.6401C113.708 71.1542 113.438 69.8069 112.86 68.6265L111.063 69.5061ZM111.706 72.6369C111.704 73.8657 111.475 74.89 111.054 75.7382L112.846 76.6273C113.428 75.4543 113.703 74.1158 113.706 72.6401L111.706 72.6369ZM111.052 75.7422C110.633 76.5978 110.06 77.238 109.335 77.6936L110.399 79.387C111.46 78.7204 112.276 77.7889 112.848 76.6233L111.052 75.7422ZM109.332 77.6951C108.625 78.1424 107.782 78.3807 106.765 78.3792L106.762 80.3792C108.109 80.3813 109.334 80.0604 110.401 79.3854L109.332 77.6951ZM106.765 78.5723C107.839 78.574 108.811 78.297 109.604 77.6696L108.363 76.1014C107.995 76.3925 107.489 76.5735 106.768 76.5723L106.765 78.5723ZM109.604 77.6696C110.339 77.0878 110.872 76.3279 111.21 75.4216L109.336 74.7227C109.115 75.3156 108.788 75.7645 108.363 76.1014L109.604 77.6696ZM111.21 75.4216C111.535 74.5508 111.693 73.6195 111.694 72.6369L109.694 72.6337C109.693 73.4011 109.57 74.0944 109.336 74.7227L111.21 75.4216ZM111.694 72.6369C111.696 71.6541 111.541 70.7205 111.22 69.8444L109.342 70.5329C109.575 71.169 109.696 71.8665 109.694 72.6337L111.694 72.6369ZM111.22 69.8444C110.885 68.9327 110.356 68.1659 109.624 67.5758L108.369 69.1326C108.795 69.4762 109.122 69.9324 109.342 70.5329L111.22 69.8444ZM109.624 67.5758C108.834 66.938 107.86 66.6536 106.783 66.6519L106.78 68.6519C107.499 68.653 108.002 68.8368 108.369 69.1326L109.624 67.5758ZM106.783 66.6519C105.707 66.6502 104.732 66.9316 103.939 67.5669L105.19 69.1276C105.558 68.833 106.061 68.6508 106.78 68.6519L106.783 66.6519ZM103.939 67.5669C103.206 68.1547 102.674 68.9198 102.337 69.8305L104.213 70.5248C104.435 69.925 104.763 69.4699 105.19 69.1276L103.939 67.5669ZM102.337 69.8305C102.013 70.7055 101.855 71.6387 101.854 72.6214L103.854 72.6246C103.855 71.8573 103.978 71.1602 104.213 70.5248L102.337 69.8305ZM101.854 72.6214C101.852 73.6041 102.007 74.5358 102.329 75.4077L104.205 74.7146C103.973 74.0856 103.852 73.3919 103.854 72.6246L101.854 72.6214ZM102.329 75.4077C102.664 76.315 103.195 77.0766 103.928 77.6606L105.175 76.0964C104.75 75.7582 104.425 75.3082 104.205 74.7146L102.329 75.4077ZM103.928 77.6606C104.719 78.2906 105.691 78.5706 106.765 78.5723L106.768 76.5723C106.046 76.5712 105.541 76.3887 105.175 76.0964L103.928 77.6606ZM117.974 78.553L117.437 79.3965L117.439 79.398L117.974 78.553ZM115.898 76.189L114.999 76.6267L115.001 76.6307L115.898 76.189ZM115.91 69.0725L115.013 68.6299L115.011 68.6339L115.91 69.0725ZM117.993 66.7064L117.461 65.8597L117.458 65.8613L117.993 66.7064ZM124.206 66.7162L123.669 67.5597L123.671 67.5612L124.206 66.7162ZM126.282 69.0888L125.382 69.5245L125.384 69.5286L126.282 69.0888ZM126.271 76.2052L125.375 75.7607L125.373 75.7647L126.271 76.2052ZM124.187 78.5628L123.655 77.7161L123.653 77.7176L124.187 78.5628ZM123.304 76.908L122.683 76.1239L123.304 76.908ZM124.593 75.0947L125.53 75.4441L124.593 75.0947ZM124.601 70.2111L125.54 69.8669L125.54 69.8669L124.601 70.2111ZM123.317 68.3767L123.945 67.5983L123.317 68.3767ZM118.885 68.3698L118.26 67.5894L118.885 68.3698ZM117.595 70.2001L116.657 69.853L116.657 69.853L117.595 70.2001ZM117.588 75.0837L116.65 75.4302L117.588 75.0837ZM118.872 76.901L119.495 76.1189L118.872 76.901ZM121.085 78.4017C120.069 78.4001 119.222 78.1591 118.509 77.708L117.439 79.398C118.509 80.0747 119.735 80.3995 121.082 80.4016L121.085 78.4017ZM118.511 77.7095C117.792 77.2514 117.219 76.6077 116.796 75.7472L115.001 76.6307C115.574 77.7945 116.385 78.7268 117.437 79.3965L118.511 77.7095ZM116.798 75.7512C116.383 74.9008 116.161 73.8742 116.162 72.6439L114.162 72.6408C114.16 74.115 114.428 75.4529 114.999 76.6267L116.798 75.7512ZM116.162 72.6439C116.164 71.401 116.391 70.366 116.808 69.511L115.011 68.6339C114.436 69.8115 114.165 71.1564 114.162 72.6408L116.162 72.6439ZM116.806 69.5151C117.233 68.6502 117.808 68.0066 118.527 67.5516L117.458 65.8613C116.403 66.5285 115.589 67.4623 115.013 68.6299L116.806 69.5151ZM118.525 67.5531C119.239 67.1043 120.087 66.866 121.103 66.8676L121.107 64.8676C119.759 64.8655 118.532 65.1864 117.461 65.8597L118.525 67.5531ZM121.103 66.8676C122.12 66.8692 122.963 67.1102 123.669 67.5597L124.743 65.8727C123.678 65.1945 122.454 64.8697 121.107 64.8676L121.103 66.8676ZM123.671 67.5612C124.393 68.0182 124.964 68.6619 125.382 69.5245L127.182 68.6531C126.614 67.48 125.801 66.542 124.741 65.8712L123.671 67.5612ZM125.384 69.5286C125.802 70.3839 126.028 71.418 126.026 72.6594L128.026 72.6625C128.028 71.1766 127.758 69.8294 127.18 68.649L125.384 69.5286ZM126.026 72.6594C126.024 73.8882 125.796 74.9125 125.375 75.7607L127.166 76.6498C127.748 75.4768 128.024 74.1383 128.026 72.6625L126.026 72.6594ZM125.373 75.7647C124.953 76.6203 124.38 77.2605 123.655 77.7161L124.719 79.4095C125.78 78.7429 126.596 77.8114 127.168 76.6458L125.373 75.7647ZM123.653 77.7176C122.945 78.1649 122.102 78.4032 121.085 78.4017L121.082 80.4016C122.429 80.4038 123.655 80.0829 124.722 79.4079L123.653 77.7176ZM121.085 78.5948C122.159 78.5965 123.131 78.3195 123.924 77.6921L122.683 76.1239C122.315 76.415 121.81 76.596 121.088 76.5948L121.085 78.5948ZM123.924 77.6921C124.659 77.1103 125.192 76.3504 125.53 75.4441L123.656 74.7452C123.435 75.3381 123.108 75.787 122.683 76.1239L123.924 77.6921ZM125.53 75.4441C125.855 74.5733 126.013 73.642 126.015 72.6594L124.015 72.6562C124.014 73.4236 123.891 74.1169 123.656 74.7452L125.53 75.4441ZM126.015 72.6594C126.016 71.6766 125.861 70.743 125.54 69.8669L123.662 70.5554C123.895 71.1915 124.016 71.889 124.015 72.6562L126.015 72.6594ZM125.54 69.8669C125.206 68.9552 124.676 68.1884 123.945 67.5983L122.689 69.1551C123.115 69.4987 123.442 69.9549 123.662 70.5554L125.54 69.8669ZM123.945 67.5983C123.154 66.9605 122.18 66.6761 121.104 66.6744L121.101 68.6744C121.819 68.6755 122.322 68.8593 122.689 69.1551L123.945 67.5983ZM121.104 66.6744C120.027 66.6727 119.053 66.9541 118.26 67.5894L119.51 69.1501C119.878 68.8555 120.382 68.6733 121.101 68.6744L121.104 66.6744ZM118.26 67.5894C117.526 68.1772 116.995 68.9423 116.657 69.853L118.533 70.5473C118.755 69.9475 119.083 69.4924 119.51 69.1501L118.26 67.5894ZM116.657 69.853C116.334 70.728 116.175 71.6612 116.174 72.6439L118.174 72.6471C118.175 71.8798 118.298 71.1827 118.533 70.5473L116.657 69.853ZM116.174 72.6439C116.172 73.6266 116.327 74.5583 116.65 75.4302L118.526 74.7371C118.293 74.1081 118.173 73.4144 118.174 72.6471L116.174 72.6439ZM116.65 75.4302C116.985 76.3375 117.515 77.0991 118.249 77.6831L119.495 76.1189C119.07 75.7807 118.745 75.3307 118.526 74.7371L116.65 75.4302ZM118.249 77.6831C119.039 78.3131 120.011 78.5931 121.085 78.5948L121.088 76.5948C120.367 76.5937 119.862 76.4112 119.495 76.1189L118.249 77.6831ZM132.125 61.6917L133.125 61.6933L133.127 60.6933L132.127 60.6917L132.125 61.6917ZM132.098 79.1462L132.096 80.1462L133.096 80.1478L133.098 79.1478L132.098 79.1462ZM130.086 79.1431L129.086 79.1415L129.085 80.1415L130.085 80.1431L130.086 79.1431ZM130.114 61.6885L130.115 60.6885L129.115 60.687L129.114 61.687L130.114 61.6885ZM131.125 61.6901L131.098 79.1447L133.098 79.1478L133.125 61.6933L131.125 61.6901ZM132.099 78.1462L130.088 78.1431L130.085 80.1431L132.096 80.1462L132.099 78.1462ZM131.086 79.1446L131.114 61.6901L129.114 61.687L129.086 79.1415L131.086 79.1446ZM130.112 62.6885L132.123 62.6917L132.127 60.6917L130.115 60.6885L130.112 62.6885Z" fill="black" mask="url(#path-1-outside-1_260_2459)"/>
</g>
<path d="M34.2403 2.25113L34.24 2.79594L38.6783 2.82363L27.465 41.1084L14.3361 2.67177L18.6719 2.69882L18.6722 2.15401L1.02149 2.04389L1.02128 2.5887L5.66439 2.61767L23.8574 55.814L39.5489 2.88354L43.7994 2.91006L43.7996 2.36524L34.2403 2.25113ZM112.764 1.83298L112.757 20.2657L112.347 20.2632C111.679 16.6084 110.44 13.0955 108.681 9.87072C106.514 6.11617 103.051 1.89951 98.4419 1.87075C88.0802 1.80611 87.1165 21.5949 87.1135 29.0407C86.8912 35.8255 87.8432 42.6027 89.9222 49.0346C91.6275 53.4946 93.8799 55.6879 98.1987 55.7148C99.9652 55.7751 101.716 55.367 103.292 54.5272C104.869 53.6874 106.223 52.4424 107.231 50.9042C107.64 50.0812 107.818 49.1496 107.744 48.2196L107.75 33.9274L103.192 33.899L103.192 33.3542L119.784 33.4577L119.784 34.0025L115.909 33.9783L115.901 55.2623L115.559 55.2601C115.122 54.3908 114.472 53.6625 113.679 53.1523C112.886 52.6422 111.979 52.3693 111.054 52.3627C109.616 52.4123 108.214 52.8403 106.974 53.6085L105.847 54.2552C103.43 55.5264 100.78 56.2224 98.079 56.2952C85.208 56.2149 78.3515 41.6438 78.3563 29.4764C78.3598 20.6323 81.5386 11.1542 88.2665 5.67544C91.2536 3.05866 94.9746 1.56891 98.8518 1.43746C100.383 1.50634 101.889 1.88557 103.29 2.55477L104.314 2.97885C105.499 3.52286 106.765 3.83824 108.052 3.91019C109.615 3.73258 111.085 3.03663 112.252 1.92059L112.661 1.92314L112.764 1.83298ZM116.69 2.76549L134.272 2.87518L134.272 3.41999L129.629 3.39102L129.613 44.2518C129.61 50.6442 135.805 54.5874 141.216 54.6211C147.054 54.6576 151.972 50.3661 151.975 44.0281L151.991 3.53053L146.443 3.49592L146.443 2.95111L188.061 3.21074L188.053 22.1701L187.712 22.168C187.202 17.1344 186.282 11.9893 183.04 8.0464C179.798 4.10354 175.292 3.63957 170.717 3.61103L165.767 3.58015L165.757 27.9695C166.778 28.0912 167.803 28.1582 168.83 28.1703C175.06 28.2091 176.684 23.6792 176.942 18.0511L177.403 18.0539L177.394 39.4287L176.933 39.4258C176.15 34.336 174.036 28.8202 168.403 28.7851C167.515 28.7795 166.695 28.7744 165.757 28.9138L165.746 54.9921L173.155 55.0383C177.051 54.9996 180.775 53.3642 183.552 50.4723C185.903 48.0324 187.474 44.8673 188.045 41.4201C188.339 39.5045 188.522 37.571 188.594 35.6304L188.987 35.6328L188.979 55.6092L153.302 55.3866L153.302 54.8418L157.45 54.8677L157.47 3.51023L152.759 3.48084L152.743 44.16C152.74 52.5683 145.227 56.2443 138.194 56.2004C130.239 56.1508 121.467 51.9918 121.471 42.2942L121.486 3.28574L116.638 3.2555L116.639 2.71069L116.69 2.76549ZM68.1485 28.8497C68.1515 21.1861 65.5985 2.02907 55.8685 1.96837C46.1384 1.90766 43.5703 21.0872 43.5673 28.6964C43.5643 36.3056 46.1172 55.5896 55.8472 55.6503C65.5773 55.7111 68.1454 36.5679 68.1485 28.8497ZM55.7274 56.4305C52.7999 56.2882 49.9334 55.4683 47.3277 54.0281C44.722 52.5879 42.4399 50.5619 40.6406 48.0916C36.6016 42.5183 34.4609 35.6575 34.5712 28.6402C34.496 21.9254 36.4891 15.3809 40.2459 10.0068C42.0655 7.35346 44.4322 5.18003 47.1661 3.65191C49.9 2.1238 52.929 1.28126 56.0224 1.18843C58.9239 1.3433 61.7624 2.16765 64.341 3.6043C66.9197 5.04096 69.1767 7.05552 70.9557 9.50825C75.0093 15.0647 77.1791 21.9094 77.1104 28.9238C77.1644 35.6268 75.1666 42.1545 71.4186 47.5208C69.6231 50.1861 67.2752 52.3749 64.5552 53.9194C61.8352 55.4639 58.8154 56.3229 55.7274 56.4305Z" fill="black"/>
<defs>
<filter id="filter0_d_260_2459" x="54.0771" y="61.3369" width="82.0483" height="26.1162" filterUnits="userSpaceOnUse" color-interpolation-filters="sRGB">
<feFlood flood-opacity="0" result="BackgroundImageFix"/>
<feColorMatrix in="SourceAlpha" type="matrix" values="0 0 0 0 0 0 0 0 0 0 0 0 0 0 0 0 0 0 127 0" result="hardAlpha"/>
<feOffset dy="4"/>
<feGaussianBlur stdDeviation="2"/>
<feComposite in2="hardAlpha" operator="out"/>
<feColorMatrix type="matrix" values="0 0 0 0 0 0 0 0 0 0 0 0 0 0 0 0 0 0 0.25 0"/>
<feBlend mode="normal" in2="BackgroundImageFix" result="effect1_dropShadow_260_2459"/>
<feBlend mode="normal" in="SourceGraphic" in2="effect1_dropShadow_260_2459" result="shape"/>
</filter>
</defs>
</svg>
